<svg id="Layer_1" data-name="Layer 1" xmlns="http://www.w3.org/2000/svg" viewBox="0 0 649.69 564.73"><defs><style>.cls-1{fill:#f5852e;}</style></defs><title>OrangeBubble_ExecutivePage</title><path class="cls-1" d="M520.53,564.73a18,18,0,0,1-8.69-2.24L429.37,517c-18.9,4.54-38.41,6.34-57.34,8.1C362.16,526,352,527,342,528.27,84.27,562.22,27.88,432.41,5.33,287.08c-13.26-85.42-1.85-149.4,34.86-195.6,55.35-69.65,156-82.59,254.26-89.87C419.39-7.66,523.73,23.34,588.27,88.84c45.34,46,66.26,104.6,60.48,169.4h0c-4.31,48.3-17.69,95.58-37.68,133.13-23.31,43.79-54.75,74.55-93.63,91.67l20.1,57.77a18,18,0,0,1-17,23.92ZM630.82,256.65h0Z"/></svg>