<svg id="Layer_1" data-name="Layer 1" xmlns="http://www.w3.org/2000/svg" viewBox="0 0 602.95 571.87"><defs><style>.cls-1{fill:#67c7c6;}</style></defs><title>BlueBubble_ExecutivePage</title><path class="cls-1" d="M120.82,571.87a18,18,0,0,1-17-23.93l20.81-59.68-5.71-3C50.59,449.51-8.43,418.62,1,284.19H1C14,98.26,116.9,0,298.51,0h.4C397.42.08,463.14,18,512,58.19c61.22,50.36,91,134.38,91,256.86,0,94.4-30.3,156.16-92.63,188.8C454,533.35,376.49,535.62,301.75,535.7a357.59,357.59,0,0,1-89.84-11.45L129.5,569.64A18,18,0,0,1,120.82,571.87ZM18.95,285.45h0Z"/></svg>