<svg id="Layer_1" data-name="Layer 1" xmlns="http://www.w3.org/2000/svg" viewBox="0 0 557.11 156.77"><defs><style>.cls-1{fill:#00043e;}</style></defs><title>UBC_Education</title><polygon class="cls-1" points="137.84 124.33 137.84 131.83 146.15 131.83 146.97 136.8 137.84 136.8 137.84 148.97 132.19 148.97 132.19 119.41 148.73 119.41 148.73 124.33 137.84 124.33"/><path class="cls-1" d="M163.83,149l-.43-2.7a9.16,9.16,0,0,1-6.9,3.13c-3.51,0-5.87-2.14-5.87-5.74,0-5,4.11-7.19,12.47-8V135c0-2.23-1.28-3.08-3.56-3.08a17,17,0,0,0-6.89,1.67l-.65-4.11a21.34,21.34,0,0,1,8.23-1.67c5.36,0,8,2,8,6.94V149Zm-.73-10.33c-6,.73-7.37,2.48-7.37,4.45a2.27,2.27,0,0,0,2.53,2.41,6.89,6.89,0,0,0,4.84-2.23Z"/><path class="cls-1" d="M183.17,149.36c-5.74,0-9.82-3.86-9.82-10.63,0-7.2,4.5-10.88,10-10.88a11.65,11.65,0,0,1,6.47,1.76l-.73,4.63a8.57,8.57,0,0,0-5.44-1.93c-3,0-5.09,2.18-5.09,6.3,0,4.29,2.31,6.35,5.44,6.35a8.16,8.16,0,0,0,5.35-2l.69,4.37a11.33,11.33,0,0,1-6.86,2"/><path class="cls-1" d="M208.42,149l-.47-2.91c-1.93,1.84-4.15,3.34-6.9,3.34-3.89,0-5.91-2.35-5.91-6.26V128.28h5.14v13.54c0,1.79.77,3,2.62,3,1.63,0,3.25-1,4.75-2.57v-14h5.14V149Z"/><polygon class="cls-1" points="219.32 148.97 219.32 118.84 224.47 118.03 224.47 148.97 219.32 148.97"/><path class="cls-1" d="M238.87,149.32c-4.07,0-6.81-1.5-6.81-6.22V132.47h-2.92v-4.2h2.92v-6.56l5.05-.77v7.33h4.24l.64,4.2h-4.88v9.77c0,1.67.77,2.57,2.74,2.57a6.49,6.49,0,0,0,1.63-.17l.64,4.33a14.28,14.28,0,0,1-3.26.35"/><path class="cls-1" d="M256.84,150.08c-1.84,5.1-4.2,6.68-8.18,6.68a6.5,6.5,0,0,1-1.88-.22l-.68-4.24a9.19,9.19,0,0,0,2.39.31,3.41,3.41,0,0,0,3.35-2.18l.47-1.37-7.49-20.39,5.35-.69,4.8,14.74,4.63-14.44h5.1Z"/><path class="cls-1" d="M287.89,149.4c-5.62,0-9.68-4-9.68-10.75s4.11-10.8,9.73-10.8,9.77,4.07,9.77,10.8-4.16,10.75-9.81,10.75m0-17.31c-3,0-4.67,2.7-4.67,6.56s1.67,6.56,4.67,6.56c3.17,0,4.8-2.71,4.8-6.56s-1.72-6.56-4.8-6.56"/><path class="cls-1" d="M311.94,122.62c-1.75,0-2.7.77-2.7,2.62v3h3.95l.64,4.21h-4.58V149h-5.09V132.48h-3v-4.21h3v-3.55c0-4.58,2.91-6.3,7.15-6.3a12.73,12.73,0,0,1,2.1.17l.68,4.2a13.76,13.76,0,0,0-2.14-.17"/><polygon class="cls-1" points="328.76 148.97 328.76 119.4 345.94 119.4 345.94 124.2 334.38 124.2 334.38 131.14 343.29 131.14 344.06 136.03 334.38 136.03 334.38 144.17 346.37 144.17 346.37 148.97 328.76 148.97"/><path class="cls-1" d="M364.86,149l-.43-2.87a8.1,8.1,0,0,1-6.34,3.3c-4.33,0-7.8-3.21-7.8-10.2,0-7.71,4.24-11.14,9-11.14a14.62,14.62,0,0,1,4.8.77v-10l5.14-.82V149Zm-.73-15.89a8.33,8.33,0,0,0-4-.9c-2.7,0-4.67,2.18-4.67,6.73,0,4,1.72,5.91,4,5.91,1.89,0,3.34-1.12,4.72-2.83Z"/><path class="cls-1" d="M388.79,149l-.47-2.91c-1.93,1.84-4.15,3.34-6.9,3.34-3.89,0-5.91-2.35-5.91-6.26V128.28h5.14v13.54c0,1.79.77,3,2.62,3,1.63,0,3.26-1,4.75-2.57v-14h5.14V149Z"/><path class="cls-1" d="M408.22,149.36c-5.74,0-9.81-3.86-9.81-10.63,0-7.2,4.49-10.88,10-10.88a11.69,11.69,0,0,1,6.47,1.76l-.73,4.63a8.56,8.56,0,0,0-5.44-1.93c-3,0-5.1,2.18-5.1,6.3,0,4.29,2.31,6.35,5.44,6.35a8.16,8.16,0,0,0,5.36-2l.69,4.37a11.33,11.33,0,0,1-6.86,2"/><path class="cls-1" d="M432.32,149l-.43-2.7a9.16,9.16,0,0,1-6.9,3.13c-3.51,0-5.87-2.14-5.87-5.74,0-5,4.11-7.19,12.47-8V135c0-2.23-1.28-3.08-3.56-3.08a17,17,0,0,0-6.89,1.67l-.65-4.11a21.34,21.34,0,0,1,8.23-1.67c5.36,0,8,2,8,6.94V149Zm-.73-10.33c-6,.73-7.37,2.48-7.37,4.45a2.27,2.27,0,0,0,2.53,2.41,6.89,6.89,0,0,0,4.84-2.23Z"/><path class="cls-1" d="M450.8,149.32c-4.07,0-6.81-1.5-6.81-6.22V132.47h-2.92v-4.2H444v-6.56l5.05-.77v7.33h4.24l.64,4.2H449v9.77c0,1.67.77,2.57,2.74,2.57a6.49,6.49,0,0,0,1.63-.17l.64,4.33a14.28,14.28,0,0,1-3.26.35"/><path class="cls-1" d="M461.83,124.8a2.93,2.93,0,0,1-3.09-2.91,3.07,3.07,0,0,1,6.13,0,2.92,2.92,0,0,1-3,2.91m-2.62,3.47h5.14V149h-5.14Z"/><path class="cls-1" d="M479.49,149.4c-5.62,0-9.68-4-9.68-10.75s4.12-10.8,9.73-10.8,9.77,4.07,9.77,10.8-4.16,10.75-9.81,10.75m0-17.31c-3,0-4.67,2.7-4.67,6.56s1.67,6.56,4.67,6.56c3.17,0,4.8-2.71,4.8-6.56s-1.72-6.56-4.8-6.56"/><path class="cls-1" d="M507.06,149V135.43c0-1.8-.77-3-2.66-3-1.63,0-3.22,1-4.72,2.62v14h-5.14V128.28h4.37l.47,2.91c1.93-1.84,4.11-3.34,6.89-3.34,3.86,0,5.92,2.36,5.92,6.22V149Z"/><path class="cls-1" d="M42.79,43.34l4.56,33.1,15-25.06L56,78.94,72.15,63.47,63.73,83.89l13.45-10c-6.26,17-11.72,26.59-34.39,34.36C20.12,100.45,14.66,90.89,8.4,73.85l13.45,10L13.43,63.47,29.6,78.94,23.23,51.38l15,25.06Z"/><path class="cls-1" d="M19,32.25c-6.88,0-11-3.67-11-9.85V7.61h5.69V22.16c0,3.59,1.89,5.56,5.32,5.56s5.39-1.88,5.39-5.46V7.61H30.2V22.3c0,6.14-4.28,9.95-11.17,9.95"/><path class="cls-1" d="M40.55,17.34h2.07c2.77,0,4.31-1,4.31-2.92s-1.34-2.76-4.08-2.76h-2.3Zm0,10.45H43c2.21,0,4.85-.57,4.85-3.27s-2.68-3.37-4.93-3.37H40.55Zm2.45,4H35V7.61h8.08c5.9,0,9.15,2.29,9.15,6.43A5.21,5.21,0,0,1,49,18.93c2.91,1,4.39,3,4.39,5.73,0,4.63-3.67,7.18-10.35,7.18"/><path class="cls-1" d="M69.31,32.25c-7.84,0-12.91-4.89-12.91-12.49S61.66,7.2,69.47,7.2a15,15,0,0,1,7.45,1.75l.19.1L76.25,14l-.37-.25a10.81,10.81,0,0,0-6.22-2c-4.66,0-7.45,3-7.45,8s2.88,8,7.52,8a12.59,12.59,0,0,0,6.61-2l.37-.22.8,4.61-.18.1a16.35,16.35,0,0,1-8,2.05"/><path class="cls-1" d="M0,0V63.29c0,26.6,14.47,45.86,42.79,53.41,28.31-7.55,42.79-26.81,42.79-53.41V0ZM42.79,113.34C16,105.76,3.25,88.08,3.25,62.89V3.24H82.34V62.89c0,25.19-12.78,42.87-39.55,50.45"/><path class="cls-1" d="M42.79,40.42c6,0,6.77,2.42,11.58,2.39S60,40.42,65.95,40.42s6.79,2.42,11.58,2.39V37.26c-4.79,0-5.61-2.36-11.58-2.36s-6.79,2.39-11.57,2.36S48.76,34.9,42.79,34.9,36,37.29,31.21,37.26,25.6,34.9,19.64,34.9s-6.79,2.39-11.58,2.36v5.56c4.79,0,5.61-2.39,11.58-2.39s6.79,2.42,11.57,2.39,5.61-2.39,11.58-2.39"/><path class="cls-1" d="M46.57,50.46c2.87.69,4.25,2,7.79,2,4.79,0,5.61-2.39,11.58-2.39s6.79,2.42,11.58,2.39V46.89c-4.79,0-5.62-2.36-11.58-2.36s-6.79,2.39-11.58,2.36c-3.85,0-5.14-1.51-8.58-2.11Z"/><path class="cls-1" d="M31.21,52.44c3.55,0,4.92-1.29,7.79-2l.79-5.69c-3.44.61-4.72,2.14-8.58,2.11-4.79,0-5.61-2.36-11.57-2.36s-6.79,2.39-11.58,2.36v5.56c4.79,0,5.61-2.39,11.58-2.39s6.79,2.42,11.57,2.39"/><path class="cls-1" d="M48,60.5A21.41,21.41,0,0,0,52.77,62l3.34-5.57a11.78,11.78,0,0,1-1.73.11c-3.3,0-4.72-1.1-7.21-1.81Z"/><path class="cls-1" d="M63.23,59.88a17,17,0,0,1,2.72-.2c6,0,6.79,2.42,11.58,2.39V56.52c-4.79,0-5.62-2.36-11.58-2.36l-1.4.05Z"/><path class="cls-1" d="M22.35,59.88,21,54.21l-1.4-.05c-6,0-6.79,2.39-11.58,2.36v5.56c4.79,0,5.61-2.39,11.58-2.39a17,17,0,0,1,2.71.2"/><path class="cls-1" d="M32.81,62a21.51,21.51,0,0,0,4.81-1.49l.8-5.78c-2.5.7-3.91,1.83-7.21,1.81a11,11,0,0,1-1.73-.11Z"/><polygon class="cls-1" points="137.33 31.84 133.15 31.84 133.15 14.18 126.57 14.18 126.57 10.45 143.67 10.45 144.23 14.18 137.33 14.18 137.33 31.84"/><polygon class="cls-1" points="169.7 31.84 165.51 31.84 165.51 22.62 156.29 22.62 156.29 31.84 152.15 31.84 152.15 10.45 156.29 10.45 156.29 18.8 165.51 18.8 165.51 10.45 169.7 10.45 169.7 31.84"/><polygon class="cls-1" points="195.39 31.84 181.64 31.84 181.64 10.45 195.1 10.45 195.1 14.14 185.79 14.14 185.79 18.88 193.2 18.88 193.81 22.57 185.79 22.57 185.79 28.15 195.39 28.15 195.39 31.84"/><path class="cls-1" d="M227.63,32.25c-5.47,0-8.73-3.28-8.73-8.78v-13H223V23.31c0,3.44,1.64,5.33,4.62,5.33s4.67-1.81,4.67-5.24v-13h4.18V23.31c0,5.6-3.32,8.94-8.89,8.94"/><polygon class="cls-1" points="265.4 31.84 261.8 31.84 251.63 16.85 251.63 31.84 247.81 31.84 247.81 10.45 251.87 10.45 261.58 24.81 261.58 10.45 265.4 10.45 265.4 31.84"/><rect class="cls-1" x="277.29" y="10.44" width="4.19" height="21.4"/><polygon class="cls-1" points="301.75 32.16 297.99 32.16 289.73 10.96 293.92 10.04 300.02 26.75 306 10.44 310.23 10.44 301.75 32.16"/><polygon class="cls-1" points="331.86 31.84 318.11 31.84 318.11 10.45 331.58 10.45 331.58 14.14 322.26 14.14 322.26 18.88 329.67 18.88 330.29 22.57 322.26 22.57 322.26 28.15 331.86 28.15 331.86 31.84"/><path class="cls-1" d="M354.57,32.11l-6.1-8.38h-2v8.11h-4.15V10.44h6.71c5.08,0,8.12,2.49,8.12,6.67a6.07,6.07,0,0,1-4.25,6.05l5.93,8Zm-8.06-11.7H349c2.59,0,4-1.15,4-3.26,0-2.53-2.17-3.05-4-3.05h-2.53Z"/><path class="cls-1" d="M374.12,32.12a19.17,19.17,0,0,1-7.27-1.59l-.16-.06.62-3.81.26.13a15.8,15.8,0,0,0,6.73,1.85c2.35,0,3.88-1,3.88-2.64s-1-2.21-4-3.23c-4.49-1.57-6.76-3-6.76-6.37,0-3.67,3-6.25,7.24-6.25a15.54,15.54,0,0,1,6.17,1.26l.14.08-.61,3.88-.26-.13a12,12,0,0,0-5.56-1.55c-1.87,0-3.27,1-3.27,2.26s1,2,4.28,3.11c4.2,1.46,6.48,2.93,6.48,6.49,0,3.93-3.18,6.58-7.91,6.58"/><rect class="cls-1" x="392.38" y="10.44" width="4.19" height="21.4"/><polygon class="cls-1" points="415.4 31.84 411.22 31.84 411.22 14.18 404.65 14.18 404.65 10.45 421.75 10.45 422.3 14.18 415.4 14.18 415.4 31.84"/><polygon class="cls-1" points="436.95 31.84 432.76 31.84 432.76 23.58 425.11 10.97 429.36 10.05 434.92 19.78 440.3 10.45 444.9 10.45 436.95 23.54 436.95 31.84"/><path class="cls-1" d="M136.87,75c-5.12,0-10.3-3.81-10.3-11.09s5.18-11.12,10.3-11.12,10.25,3.8,10.25,11.08S142,75,136.87,75m0-18.61c-3.63,0-6.08,3-6.08,7.48s2.56,7.57,6.08,7.57,6-3,6-7.52-2.54-7.52-6-7.52"/><polygon class="cls-1" points="160.89 74.63 156.76 74.63 156.76 53.24 169.88 53.24 169.88 56.93 160.89 56.93 160.89 62 167.94 62 168.55 65.69 160.89 65.69 160.89 74.63"/><path class="cls-1" d="M199.56,74.63h-7V53.23h7c4.51,0,7.2,2.08,7.2,5.55A4.76,4.76,0,0,1,204,63.29a5,5,0,0,1,3.62,5c0,4.11-2.89,6.38-8.11,6.38m-3.06-3.49h3.1c2.78,0,4.13-.94,4.13-2.89s-1.37-3.1-4.09-3.1H196.5Zm0-9.38h2.73c2.38,0,3.58-.88,3.58-2.63,0-1-.36-2.36-3.46-2.36H196.5Z"/><path class="cls-1" d="M230,74.9l-6.09-8.38h-1.95v8.1h-4.15V53.24h6.71c5.08,0,8.11,2.49,8.11,6.67a6.06,6.06,0,0,1-4.25,6l5.93,8Zm-8-11.71h2.51c2.58,0,4-1.15,4-3.26,0-2.53-2.17-3.05-4-3.05h-2.51Z"/><rect class="cls-1" x="243.45" y="53.24" width="4.19" height="21.39"/><polygon class="cls-1" points="266.51 74.63 262.33 74.63 262.33 56.97 255.75 56.97 255.75 53.24 272.85 53.24 273.41 56.97 266.51 56.97 266.51 74.63"/><rect class="cls-1" x="281.07" y="53.24" width="4.19" height="21.39"/><path class="cls-1" d="M302.53,74.91a19.22,19.22,0,0,1-7.28-1.59l-.16-.06.61-3.81.26.13a16,16,0,0,0,6.73,1.84c2.36,0,3.88-1,3.88-2.64s-1-2.21-4-3.23c-4.48-1.56-6.76-3-6.76-6.36,0-3.68,3-6.25,7.25-6.25a15.4,15.4,0,0,1,6.16,1.26l.16.07-.61,3.88-.26-.13a12,12,0,0,0-5.57-1.55c-1.85,0-3.26,1-3.26,2.26s1,2,4.28,3.11c4.19,1.46,6.46,2.93,6.46,6.49,0,3.94-3.17,6.58-7.9,6.58"/><polygon class="cls-1" points="337.09 74.63 332.9 74.63 332.9 65.41 323.69 65.41 323.69 74.63 319.54 74.63 319.54 53.24 323.69 53.24 323.69 61.59 332.9 61.59 332.9 53.24 337.09 53.24 337.09 74.63"/><path class="cls-1" d="M369.21,75c-6.16,0-10.3-4.43-10.3-11s4.15-11.16,10.3-11.16a10.94,10.94,0,0,1,6.16,1.64l.12.08-.66,3.91-.28-.21a8.33,8.33,0,0,0-5.21-1.86c-3.85,0-6.15,2.83-6.15,7.56s2.38,7.56,6.23,7.56a9.76,9.76,0,0,0,5.54-1.9l.28-.2.58,3.65-.12.07a11.88,11.88,0,0,1-6.49,1.9"/><path class="cls-1" d="M393.8,75c-5.12,0-10.3-3.81-10.3-11.09s5.18-11.12,10.3-11.12,10.25,3.8,10.25,11.08S398.9,75,393.8,75m0-18.61c-3.64,0-6.08,3-6.08,7.48s2.56,7.57,6.08,7.57,6-3,6-7.52-2.54-7.52-6-7.52"/><polygon class="cls-1" points="425.88 74.63 413.22 74.63 413.22 53.24 417.37 53.24 417.37 70.97 425.28 70.97 425.88 74.63"/><path class="cls-1" d="M442,75c-5.47,0-8.73-3.28-8.73-8.77v-13h4.15V66.1c0,3.43,1.64,5.32,4.63,5.32s4.66-1.8,4.66-5.24V53.23h4.2V66.1c0,5.6-3.33,8.93-8.9,8.93"/><polygon class="cls-1" points="475.7 74.71 471.69 74.71 465.98 58.48 464.8 74.63 460.99 74.63 462.67 53.23 468.32 53.23 473.92 69.62 479.58 53.23 485.11 53.23 486.79 74.63 482.64 74.63 481.42 58.48 475.7 74.71"/><path class="cls-1" d="M505,74.63h-7V53.23h7c4.51,0,7.21,2.08,7.21,5.55a4.77,4.77,0,0,1-2.67,4.51,5,5,0,0,1,3.62,5c0,4.11-2.87,6.38-8.11,6.38m-3-3.49h3.08c2.78,0,4.14-.94,4.14-2.89s-1.38-3.1-4.1-3.1H502Zm0-9.38h2.72c2.38,0,3.58-.88,3.58-2.63,0-1-.35-2.36-3.46-2.36H502Z"/><rect class="cls-1" x="523.64" y="53.24" width="4.19" height="21.39"/><path class="cls-1" d="M553,75l-2.07-5.66h-9L540,74.63h-4.1L544.36,53h4.43l8.32,21.12Zm-9.68-9.35h6.22c-.38-1.09-1.94-5.29-3.09-8.38Z"/></svg>