<svg id="Layer_1" data-name="Layer 1" xmlns="http://www.w3.org/2000/svg" viewBox="0 0 557.12 156.77"><defs><style>.cls-1{fill:#00043e;}</style></defs><title>UBC_AccessDiversity</title><path class="cls-1" d="M152.28,149.27l-2.82-7.8H138.27l-2.69,7.5H130l11.09-29.69h6l10.84,29Zm-8.44-23.83-4,11.4h8.06Z"/><path class="cls-1" d="M171.07,149.36c-5.74,0-9.82-3.86-9.82-10.63,0-7.2,4.5-10.88,10-10.88a11.67,11.67,0,0,1,6.47,1.76l-.73,4.63a8.57,8.57,0,0,0-5.44-1.93c-3,0-5.09,2.18-5.09,6.3,0,4.29,2.31,6.35,5.44,6.35a8.16,8.16,0,0,0,5.35-2l.69,4.37a11.32,11.32,0,0,1-6.86,2"/><path class="cls-1" d="M191.49,149.36c-5.74,0-9.82-3.86-9.82-10.63,0-7.2,4.5-10.88,10-10.88a11.67,11.67,0,0,1,6.47,1.76l-.73,4.63A8.57,8.57,0,0,0,192,132.3c-3,0-5.09,2.18-5.09,6.3,0,4.29,2.31,6.35,5.44,6.35a8.16,8.16,0,0,0,5.35-2l.69,4.37a11.33,11.33,0,0,1-6.86,2"/><path class="cls-1" d="M220.47,139.63H207.19c.26,4,2.4,5.78,5.57,5.78a12,12,0,0,0,7.11-2.57l.6,4a14.15,14.15,0,0,1-8.27,2.53c-5.78,0-10.12-3.3-10.12-10.75,0-6.73,4-10.8,9.43-10.8,6.22,0,9,4.67,9,10.54Zm-9.08-8.23c-2.06,0-3.73,1.63-4.12,5h8.23c-.34-3.21-1.63-5-4.12-5"/><path class="cls-1" d="M232.75,149.36a18,18,0,0,1-8.06-2l.68-4.28a14.38,14.38,0,0,0,7.54,2.44c2.23,0,3.43-.81,3.43-2.14s-.9-2.06-4.2-2.87c-5-1.28-7.11-2.74-7.11-6.5,0-3.56,2.83-6.09,7.62-6.09a17.44,17.44,0,0,1,7.24,1.46l-.68,4.28a14.22,14.22,0,0,0-6.56-1.89c-1.93,0-2.87.74-2.87,1.89s.77,1.72,3.86,2.53c5.36,1.37,7.46,2.82,7.46,6.73,0,4.07-2.92,6.47-8.36,6.47"/><path class="cls-1" d="M253.07,149.36a18,18,0,0,1-8.06-2l.68-4.28a14.42,14.42,0,0,0,7.54,2.44c2.23,0,3.43-.81,3.43-2.14s-.9-2.06-4.2-2.87c-5-1.28-7.11-2.74-7.11-6.5,0-3.56,2.83-6.09,7.62-6.09a17.44,17.44,0,0,1,7.24,1.46l-.68,4.28a14.22,14.22,0,0,0-6.56-1.89c-1.93,0-2.87.74-2.87,1.89s.77,1.72,3.86,2.53c5.36,1.37,7.46,2.82,7.46,6.73,0,4.07-2.92,6.47-8.36,6.47"/><path class="cls-1" d="M297.57,149.23l-3.47-3.56a11.75,11.75,0,0,1-8.78,3.81c-6,0-9.77-2.91-9.77-8,0-4.2,2.53-6.94,6.3-8.92a8.74,8.74,0,0,1-2.7-6.43c0-4.19,3.08-7.28,8.36-7.28a16,16,0,0,1,7.62,1.85l-.81,4.93a13,13,0,0,0-6.52-2.23c-2.18,0-3.29,1.25-3.29,2.92,0,1.45.73,2.62,2.35,4.33l7.12,7.54a27.43,27.43,0,0,0,1.63-6.64l4.5,1a27.5,27.5,0,0,1-3,9.17l6.13,6.59Zm-12.94-13.63c-2.4,1.37-3.73,3.17-3.73,5.23,0,2.57,2,4.37,5,4.37a7.13,7.13,0,0,0,5.44-2.62Z"/><path class="cls-1" d="M326.87,149h-9.38V119.41h9.38c10.28,0,15.59,6,15.59,14.74S336.94,149,326.87,149m0-24.89h-3.68V144.3h3.59c6.22,0,9.95-3.17,9.95-10.11s-3.95-10.12-9.86-10.12"/><path class="cls-1" d="M351.06,124.8a2.93,2.93,0,0,1-3.09-2.91,3.07,3.07,0,0,1,6.13,0,2.92,2.92,0,0,1-3,2.91m-2.62,3.47h5.14V149h-5.14Z"/><polygon class="cls-1" points="370.48 149.06 365.46 149.06 358.22 128.66 363.62 127.97 368.25 142.68 372.7 128.28 377.8 128.28 370.48 149.06"/><path class="cls-1" d="M398.82,139.63H385.53c.26,4,2.4,5.78,5.57,5.78a12,12,0,0,0,7.11-2.57l.6,4a14.15,14.15,0,0,1-8.27,2.53c-5.78,0-10.12-3.3-10.12-10.75,0-6.73,4-10.8,9.43-10.8,6.22,0,9,4.67,9,10.54Zm-9.08-8.23c-2.06,0-3.73,1.63-4.12,5h8.23c-.34-3.21-1.63-5-4.12-5"/><path class="cls-1" d="M409.25,137.1V149h-5.14v-20.7h4.37l.65,4.16c1.37-2.4,3.43-4.42,6.64-4.58l.82,5.1a9.51,9.51,0,0,0-7.33,4.15"/><path class="cls-1" d="M427.6,149.36a18,18,0,0,1-8.06-2l.68-4.28a14.42,14.42,0,0,0,7.54,2.44c2.23,0,3.43-.81,3.43-2.14s-.9-2.06-4.2-2.87c-5-1.28-7.11-2.74-7.11-6.5,0-3.56,2.83-6.09,7.62-6.09a17.44,17.44,0,0,1,7.24,1.46l-.68,4.28a14.22,14.22,0,0,0-6.56-1.89c-1.93,0-2.87.74-2.87,1.89s.77,1.72,3.86,2.53c5.36,1.37,7.46,2.82,7.46,6.73,0,4.07-2.92,6.47-8.36,6.47"/><path class="cls-1" d="M443.94,124.8a2.93,2.93,0,0,1-3.08-2.91,3.06,3.06,0,0,1,6.13,0,2.92,2.92,0,0,1-3,2.91m-2.61,3.47h5.14V149h-5.14Z"/><path class="cls-1" d="M460.87,149.32c-4.07,0-6.82-1.5-6.82-6.22V132.47h-2.91v-4.2h2.91v-6.56l5.06-.77v7.33h4.24l.64,4.2h-4.88v9.77c0,1.67.77,2.57,2.74,2.57a6.52,6.52,0,0,0,1.63-.17l.64,4.33a14.26,14.26,0,0,1-3.25.35"/><path class="cls-1" d="M478.83,150.08c-1.84,5.1-4.19,6.68-8.18,6.68a6.5,6.5,0,0,1-1.88-.22l-.68-4.24a9.19,9.19,0,0,0,2.39.31,3.41,3.41,0,0,0,3.35-2.18l.47-1.37-7.5-20.39,5.36-.69,4.8,14.74,4.63-14.44h5.1Z"/><path class="cls-1" d="M42.79,43.34l4.57,33.1,15-25.06L56,78.94,72.15,63.47,63.73,83.89l13.45-10c-6.26,17-11.72,26.59-34.39,34.36C20.11,100.45,14.66,90.89,8.39,73.85l13.45,10L13.43,63.47,29.59,78.94,23.23,51.38l15,25.06Z"/><path class="cls-1" d="M19,32.25c-6.87,0-11-3.67-11-9.85V7.61h5.7V22.16c0,3.59,1.88,5.56,5.32,5.56s5.39-1.88,5.39-5.46V7.61H30.2V22.3c0,6.14-4.28,9.95-11.17,9.95"/><path class="cls-1" d="M40.55,17.34h2.08c2.77,0,4.3-1,4.3-2.92s-1.34-2.76-4.08-2.76h-2.3Zm0,10.45H43c2.21,0,4.85-.57,4.85-3.27s-2.68-3.37-4.93-3.37H40.55Zm2.45,4H35V7.61h8.08c5.9,0,9.15,2.29,9.15,6.43A5.2,5.2,0,0,1,49,18.93c2.91,1,4.39,3,4.39,5.73,0,4.63-3.68,7.18-10.36,7.18"/><path class="cls-1" d="M69.31,32.25c-7.85,0-12.91-4.89-12.91-12.49S61.65,7.2,69.46,7.2a15,15,0,0,1,7.45,1.75l.19.1L76.25,14l-.37-.25a10.81,10.81,0,0,0-6.22-2c-4.66,0-7.45,3-7.45,8s2.88,8,7.52,8a12.59,12.59,0,0,0,6.61-2l.37-.22.8,4.61-.18.1a16.35,16.35,0,0,1-8,2.05"/><path class="cls-1" d="M0,0V63.29c0,26.6,14.47,45.86,42.79,53.41,28.32-7.55,42.79-26.81,42.79-53.41V0ZM42.79,113.34C16,105.76,3.24,88.08,3.24,62.89V3.24H82.33V62.89c0,25.19-12.77,42.87-39.55,50.45"/><path class="cls-1" d="M42.79,40.42c6,0,6.77,2.42,11.58,2.39s5.6-2.39,11.57-2.39,6.79,2.42,11.58,2.39V37.26c-4.79,0-5.62-2.36-11.58-2.36s-6.79,2.39-11.57,2.36S48.75,34.9,42.79,34.9,36,37.29,31.21,37.26,25.6,34.9,19.63,34.9s-6.79,2.39-11.58,2.36v5.56c4.79,0,5.61-2.39,11.58-2.39s6.79,2.42,11.57,2.39,5.61-2.39,11.58-2.39"/><path class="cls-1" d="M46.57,50.46c2.88.69,4.25,2,7.8,2,4.79,0,5.6-2.39,11.57-2.39s6.79,2.42,11.58,2.39V46.89c-4.79,0-5.62-2.36-11.58-2.36s-6.79,2.39-11.57,2.36c-3.86,0-5.14-1.51-8.58-2.11Z"/><path class="cls-1" d="M31.21,52.44c3.55,0,4.92-1.29,7.79-2l.79-5.69c-3.44.61-4.72,2.14-8.58,2.11-4.79,0-5.61-2.36-11.57-2.36s-6.79,2.39-11.58,2.36v5.56c4.79,0,5.61-2.39,11.58-2.39s6.79,2.42,11.57,2.39"/><path class="cls-1" d="M48,60.5A21.51,21.51,0,0,0,52.76,62l3.34-5.57a11.78,11.78,0,0,1-1.73.11c-3.3,0-4.72-1.1-7.21-1.81Z"/><path class="cls-1" d="M63.23,59.88a17,17,0,0,1,2.72-.2c6,0,6.79,2.42,11.57,2.39V56.52c-4.79,0-5.61-2.36-11.57-2.36l-1.41.05Z"/><path class="cls-1" d="M22.35,59.88,21,54.21l-1.4-.05c-6,0-6.79,2.39-11.58,2.36v5.56c4.79,0,5.61-2.39,11.58-2.39a17,17,0,0,1,2.71.2"/><path class="cls-1" d="M32.81,62a21.51,21.51,0,0,0,4.81-1.49l.8-5.78c-2.5.7-3.91,1.83-7.21,1.81a11,11,0,0,1-1.73-.11Z"/><polygon class="cls-1" points="137.33 31.84 133.14 31.84 133.14 14.18 126.57 14.18 126.57 10.45 143.67 10.45 144.22 14.18 137.33 14.18 137.33 31.84"/><polygon class="cls-1" points="169.69 31.84 165.51 31.84 165.51 22.62 156.29 22.62 156.29 31.84 152.14 31.84 152.14 10.45 156.29 10.45 156.29 18.8 165.51 18.8 165.51 10.45 169.69 10.45 169.69 31.84"/><polygon class="cls-1" points="195.38 31.84 181.63 31.84 181.63 10.45 195.1 10.45 195.1 14.14 185.78 14.14 185.78 18.88 193.2 18.88 193.81 22.57 185.78 22.57 185.78 28.15 195.38 28.15 195.38 31.84"/><path class="cls-1" d="M227.63,32.25c-5.47,0-8.73-3.28-8.73-8.78v-13H223V23.31c0,3.44,1.64,5.33,4.62,5.33s4.67-1.81,4.67-5.24v-13h4.19V23.31c0,5.6-3.32,8.94-8.89,8.94"/><polygon class="cls-1" points="265.39 31.84 261.8 31.84 251.62 16.85 251.62 31.84 247.81 31.84 247.81 10.45 251.86 10.45 261.58 24.81 261.58 10.45 265.39 10.45 265.39 31.84"/><rect class="cls-1" x="277.28" y="10.44" width="4.19" height="21.4"/><polygon class="cls-1" points="301.74 32.16 297.98 32.16 289.73 10.96 293.92 10.04 300.02 26.75 306 10.44 310.22 10.44 301.74 32.16"/><polygon class="cls-1" points="331.86 31.84 318.11 31.84 318.11 10.45 331.57 10.45 331.57 14.14 322.26 14.14 322.26 18.88 329.67 18.88 330.28 22.57 322.26 22.57 322.26 28.15 331.86 28.15 331.86 31.84"/><path class="cls-1" d="M354.57,32.11l-6.1-8.38h-2v8.11h-4.15V10.44h6.72c5.08,0,8.11,2.49,8.11,6.67a6.07,6.07,0,0,1-4.26,6.05l5.94,8Zm-8.06-11.7H349c2.59,0,4-1.15,4-3.26,0-2.53-2.18-3.05-4-3.05h-2.53Z"/><path class="cls-1" d="M374.11,32.12a19.19,19.19,0,0,1-7.27-1.59l-.16-.06.61-3.81.26.13a15.8,15.8,0,0,0,6.73,1.85c2.36,0,3.88-1,3.88-2.64s-1-2.21-4-3.23c-4.49-1.57-6.76-3-6.76-6.37,0-3.67,3-6.25,7.24-6.25a15.54,15.54,0,0,1,6.17,1.26l.15.08-.61,3.88-.26-.13a12.06,12.06,0,0,0-5.57-1.55c-1.86,0-3.27,1-3.27,2.26s1,2,4.28,3.11c4.2,1.46,6.48,2.93,6.48,6.49,0,3.93-3.17,6.58-7.91,6.58"/><rect class="cls-1" x="392.38" y="10.44" width="4.19" height="21.4"/><polygon class="cls-1" points="415.4 31.84 411.22 31.84 411.22 14.18 404.64 14.18 404.64 10.45 421.74 10.45 422.3 14.18 415.4 14.18 415.4 31.84"/><polygon class="cls-1" points="436.95 31.84 432.76 31.84 432.76 23.58 425.11 10.97 429.36 10.05 434.91 19.78 440.29 10.45 444.89 10.45 436.95 23.54 436.95 31.84"/><path class="cls-1" d="M136.87,75c-5.12,0-10.31-3.81-10.31-11.09s5.18-11.12,10.31-11.12,10.25,3.8,10.25,11.08S142,75,136.87,75m0-18.61c-3.63,0-6.08,3-6.08,7.48s2.56,7.57,6.08,7.57,6-3,6-7.52-2.54-7.52-6-7.52"/><polygon class="cls-1" points="160.89 74.63 156.75 74.63 156.75 53.24 169.87 53.24 169.87 56.93 160.89 56.93 160.89 62 167.94 62 168.55 65.69 160.89 65.69 160.89 74.63"/><path class="cls-1" d="M199.55,74.63h-7V53.23h7c4.51,0,7.19,2.08,7.19,5.55A4.76,4.76,0,0,1,204,63.29a5,5,0,0,1,3.62,5c0,4.11-2.89,6.38-8.12,6.38m-3.05-3.49h3.1c2.78,0,4.13-.94,4.13-2.89s-1.37-3.1-4.09-3.1H196.5Zm0-9.38h2.72c2.39,0,3.59-.88,3.59-2.63,0-1-.36-2.36-3.46-2.36H196.5Z"/><path class="cls-1" d="M230,74.9l-6.1-8.38h-1.94v8.1h-4.15V53.24h6.71c5.08,0,8.11,2.49,8.11,6.67a6.06,6.06,0,0,1-4.25,6l5.93,8Zm-8-11.71h2.51c2.58,0,4-1.15,4-3.26,0-2.53-2.17-3.05-4-3.05h-2.51Z"/><rect class="cls-1" x="243.44" y="53.24" width="4.2" height="21.39"/><polygon class="cls-1" points="266.51 74.63 262.33 74.63 262.33 56.97 255.75 56.97 255.75 53.24 272.85 53.24 273.4 56.97 266.51 56.97 266.51 74.63"/><rect class="cls-1" x="281.06" y="53.24" width="4.19" height="21.39"/><path class="cls-1" d="M302.53,74.91a19.2,19.2,0,0,1-7.28-1.59l-.16-.06.61-3.81.26.13a16,16,0,0,0,6.73,1.84c2.36,0,3.88-1,3.88-2.64s-1-2.21-4-3.23c-4.48-1.56-6.76-3-6.76-6.36,0-3.68,3-6.25,7.25-6.25a15.4,15.4,0,0,1,6.16,1.26l.16.07-.61,3.88-.26-.13a12,12,0,0,0-5.57-1.55c-1.85,0-3.26,1-3.26,2.26s1,2,4.28,3.11c4.19,1.46,6.47,2.93,6.47,6.49,0,3.94-3.17,6.58-7.9,6.58"/><polygon class="cls-1" points="337.08 74.63 332.9 74.63 332.9 65.41 323.69 65.41 323.69 74.63 319.54 74.63 319.54 53.24 323.69 53.24 323.69 61.59 332.9 61.59 332.9 53.24 337.08 53.24 337.08 74.63"/><path class="cls-1" d="M369.21,75C363,75,358.9,70.6,358.9,64S363,52.83,369.21,52.83a10.93,10.93,0,0,1,6.15,1.64l.12.08-.65,3.91-.29-.21a8.32,8.32,0,0,0-5.2-1.86c-3.85,0-6.16,2.83-6.16,7.56s2.38,7.56,6.23,7.56a9.76,9.76,0,0,0,5.54-1.9l.28-.2.58,3.65-.12.07a11.86,11.86,0,0,1-6.48,1.9"/><path class="cls-1" d="M393.8,75C388.67,75,383.5,71.23,383.5,64s5.18-11.12,10.31-11.12,10.25,3.8,10.25,11.08S398.89,75,393.8,75m0-18.61c-3.64,0-6.08,3-6.08,7.48s2.56,7.57,6.08,7.57,6-3,6-7.52-2.54-7.52-6-7.52"/><polygon class="cls-1" points="425.87 74.63 413.22 74.63 413.22 53.24 417.36 53.24 417.36 70.97 425.28 70.97 425.87 74.63"/><path class="cls-1" d="M442,75c-5.47,0-8.73-3.28-8.73-8.77v-13h4.15V66.1c0,3.43,1.64,5.32,4.63,5.32s4.66-1.8,4.66-5.24V53.23h4.19V66.1c0,5.6-3.32,8.93-8.89,8.93"/><polygon class="cls-1" points="475.7 74.71 471.69 74.71 465.98 58.48 464.8 74.63 460.98 74.63 462.67 53.23 468.31 53.23 473.91 69.62 479.58 53.23 485.1 53.23 486.79 74.63 482.64 74.63 481.42 58.48 475.7 74.71"/><path class="cls-1" d="M505,74.63h-7V53.23h7c4.52,0,7.21,2.08,7.21,5.55a4.77,4.77,0,0,1-2.66,4.51,5,5,0,0,1,3.61,5c0,4.11-2.87,6.38-8.11,6.38m-3-3.49h3.08c2.78,0,4.13-.94,4.13-2.89s-1.37-3.1-4.09-3.1H502Zm0-9.38h2.72c2.38,0,3.59-.88,3.59-2.63,0-1-.35-2.36-3.46-2.36H502Z"/><rect class="cls-1" x="523.64" y="53.24" width="4.19" height="21.39"/><path class="cls-1" d="M553,75l-2.06-5.66h-9L540,74.63h-4.1L544.36,53h4.43l8.33,21.12Zm-9.68-9.35h6.22c-.38-1.09-1.94-5.29-3.09-8.38Z"/></svg>