<svg id="Layer_1" data-name="Layer 1" xmlns="http://www.w3.org/2000/svg" viewBox="0 0 615.91 576.87"><defs><style>.cls-1,.cls-2{fill:#002b38;}.cls-2{font-size:85px;font-family:Trenda-Bold, Trenda;font-weight:700;letter-spacing:-0.07em;}.cls-3{letter-spacing:0.02em;}.cls-4{letter-spacing:0.02em;}.cls-17,.cls-5{letter-spacing:0.04em;}.cls-13,.cls-14,.cls-15,.cls-16,.cls-17,.cls-6{font-family:Trenda-BoldIt, Trenda;}.cls-10,.cls-6{letter-spacing:0.03em;}.cls-7{letter-spacing:0.02em;}.cls-8{letter-spacing:0.02em;}.cls-9{letter-spacing:0.02em;}.cls-11{letter-spacing:0.02em;}.cls-12{letter-spacing:0.02em;}.cls-13{letter-spacing:0.02em;}.cls-14{letter-spacing:0.02em;}.cls-15{letter-spacing:0.02em;}.cls-16{letter-spacing:0.02em;}.cls-18{fill:none;stroke:#002b38;stroke-miterlimit:10;stroke-width:8px;}</style></defs><title>YourLogoGoesHere</title><path class="cls-1" d="M608.17,7.75V569.12H7.75V7.75H608.17M615.91,0H0V576.87H615.91V0Z"/><text class="cls-2" transform="translate(116.41 272.85)">Y<tspan class="cls-3" x="51.14" y="0">o</tspan><tspan class="cls-4" x="101.19" y="0">u</tspan><tspan class="cls-5" x="152.28" y="0">r</tspan><tspan class="cls-6" x="187.73" y="0"> </tspan><tspan class="cls-7" x="209.23" y="0">l</tspan><tspan class="cls-8" x="232.7" y="0">o</tspan><tspan class="cls-9" x="282.86" y="0">g</tspan><tspan class="cls-10" x="334.66" y="0">o</tspan><tspan class="cls-9"><tspan x="-12.65" y="80">g</tspan><tspan class="cls-11" x="39.15" y="80">o</tspan><tspan class="cls-12" x="89.09" y="80">e</tspan><tspan class="cls-10" x="136.46" y="80">s </tspan><tspan class="cls-13" x="202.25" y="80">h</tspan><tspan class="cls-14" x="251.31" y="80">e</tspan><tspan class="cls-15" x="296.83" y="80">r</tspan><tspan class="cls-16" x="329.47" y="80">e</tspan><tspan class="cls-17" x="374.6" y="80">.</tspan></tspan></text><line class="cls-18" x1="607.44" y1="5.28" x2="430.43" y2="182.3"/><line class="cls-18" x1="185.9" y1="394.82" x2="8.88" y2="571.84"/><line class="cls-18" x1="607.44" y1="571.84" x2="430.43" y2="394.82"/><line class="cls-18" x1="185.9" y1="182.3" x2="8.88" y2="5.28"/></svg>